<?xml version="1.0" encoding="UTF-8"?>
<svg version="1.1" xmlns="http://www.w3.org/2000/svg" width="32" height="32">
<path d="M0 0 C4.36563955 3.40519885 6.65875906 6.44779007 7.50390625 11.8671875 C7.78817485 17.90101785 6.84570953 21.66735957 3.125 26.4375 C-1.64514043 30.15820953 -5.41148215 31.10067485 -11.4453125 30.81640625 C-16.86470993 29.97125906 -19.90730115 27.67813955 -23.3125 23.3125 C-25.8128279 18.26854848 -25.92696073 12.71164997 -24.21484375 7.3828125 C-22.32987667 3.58023822 -19.73226178 0.98262333 -15.9296875 -0.90234375 C-10.60085003 -2.61446073 -5.04395152 -2.5003279 0 0 Z " fill="#DA0101" transform="translate(24.875,1.5625)"/>
<path d="M0 0 C9.9 0 19.8 0 30 0 C28.76680146 4.93279417 26.50077228 7.49325854 22.1328125 10.125 C17.67685336 11.9530858 12.41537577 11.87097193 7.8984375 10.2421875 C4.5104377 8.4112259 1.85981997 6.39143642 0 3 C0 2.01 0 1.02 0 0 Z " fill="#FECE05" transform="translate(1,21)"/>
<path d="M0 0 C3.3879998 1.8309616 6.03861753 3.85075108 7.8984375 7.2421875 C7.8984375 8.2321875 7.8984375 9.2221875 7.8984375 10.2421875 C-2.0015625 10.2421875 -11.9015625 10.2421875 -22.1015625 10.2421875 C-20.86836396 5.30939333 -18.60233478 2.74892896 -14.234375 0.1171875 C-9.77841586 -1.7108983 -4.51693827 -1.62878443 0 0 Z " fill="#0B0505" transform="translate(23.1015625,0.7578125)"/>
<path d="M0 0 C3.8263442 1.55888097 6.14637496 4.07127956 9 7 C12.70784085 8.85392042 17.04804185 7.82021773 21 7 C23.88258287 5.17632512 25.48467791 4.03064418 27 1 C19.41 1 11.82 1 4 1 C4 0.67 4 0.34 4 0 C12.58 0 21.16 0 30 0 C28.76680146 4.93279417 26.50077228 7.49325854 22.1328125 10.125 C17.67685336 11.9530858 12.41537577 11.87097193 7.8984375 10.2421875 C4.5104377 8.4112259 1.85981997 6.39143642 0 3 C0 2.01 0 1.02 0 0 Z " fill="#E3B505" transform="translate(1,21)"/>
<path d="M0 0 C8.58 0 17.16 0 26 0 C24.85233823 4.59064709 23.52853761 5.96381647 20 9 C17.6875 9.8125 17.6875 9.8125 16 10 C17.23551244 6.29346269 18.96665078 5.35084565 22 3 C22.33 2.34 22.66 1.68 23 1 C15.41 1 7.82 1 0 1 C0 0.67 0 0.34 0 0 Z " fill="#EAA902" transform="translate(5,21)"/>
<path d="M0 0 C0.66 0 1.32 0 2 0 C2.33 3.3 2.66 6.6 3 10 C2.01 10 1.02 10 0 10 C0 6.7 0 3.4 0 0 Z " fill="#C40505" transform="translate(0,11)"/>
</svg>
